<svg width="40" height="45" fill="none" xmlns="http://www.w3.org/2000/svg"><path d="M39 20.5C39 31.293 30.47 40 20 40S1 31.293 1 20.5 9.53 1 20 1s19 8.707 19 19.5Z" stroke="#07FFE1" stroke-width="2"/><g clip-path="url('#clip0_44_258')" filter="url('#filter0_d_44_258')"><path fill-rule="evenodd" clip-rule="evenodd" d="M20.013 4C11.158 4 4 11.437 4 20.636c0 7.354 4.587 13.58 10.95 15.783.795.165 1.086-.358 1.086-.799 0-.386-.026-1.708-.026-3.085-4.454.992-5.382-1.983-5.382-1.983-.716-1.928-1.777-2.424-1.777-2.424-1.458-1.019.107-1.019.107-1.019 1.617.11 2.466 1.708 2.466 1.708 1.43 2.534 3.738 1.818 4.665 1.377.133-1.074.557-1.818 1.008-2.231-3.553-.386-7.29-1.818-7.29-8.208 0-1.818.635-3.305 1.643-4.462-.16-.413-.716-2.121.159-4.407 0 0 1.352-.441 4.4 1.708a14.958 14.958 0 0 1 4.004-.551c1.352 0 2.73.193 4.003.55 3.05-2.148 4.402-1.707 4.402-1.707.875 2.286.317 3.994.158 4.407 1.035 1.157 1.644 2.644 1.644 4.462 0 6.39-3.738 7.794-7.317 8.208.583.523 1.087 1.515 1.087 3.085 0 2.23-.026 4.021-.026 4.572 0 .44.291.964 1.087.799C31.413 34.215 36 27.99 36 20.636 36.026 11.436 28.842 4 20.013 4Z" fill="#07FFE1"/></g><defs><clipPath id="clip0_44_258"><path fill="#fff" transform="translate(4 4)" d="M0 0h32v33H0z"/></clipPath><filter id="filter0_d_44_258" x="0" y="4" width="40" height="41" filterUnits="userSpaceOnUse" color-interpolation-filters="sRGB"><feFlood flood-opacity="0" result="BackgroundImageFix"/><feColorMatrix in="SourceAlpha" values="0 0 0 0 0 0 0 0 0 0 0 0 0 0 0 0 0 0 127 0" result="hardAlpha"/><feOffset dy="4"/><feGaussianBlur stdDeviation="2"/><feComposite in2="hardAlpha" operator="out"/><feColorMatrix values="0 0 0 0 0 0 0 0 0 0 0 0 0 0 0 0 0 0 0.25 0"/><feBlend in2="BackgroundImageFix" result="effect1_dropShadow_44_258"/><feBlend in="SourceGraphic" in2="effect1_dropShadow_44_258" result="shape"/></filter></defs></svg>