<svg width="40" height="41" fill="none" xmlns="http://www.w3.org/2000/svg"><path d="M39 20.5C39 31.293 30.47 40 20 40S1 31.293 1 20.5 9.53 1 20 1s19 8.707 19 19.5Z" stroke="#07FFE1" stroke-width="2"/><path fill-rule="evenodd" clip-rule="evenodd" d="M4 19.55C4 11.19 10.988 5 20 5s16 6.195 16 14.553c0 8.359-6.988 14.55-16 14.55a18.6 18.6 0 0 1-4.632-.578 1.365 1.365 0 0 0-.856.06l-3.176 1.313a1.355 1.355 0 0 1-1.2-.083 1.237 1.237 0 0 1-.428-.42 1.144 1.144 0 0 1-.168-.558l-.088-2.67a1.157 1.157 0 0 0-.428-.855C5.912 27.702 4 23.922 4 19.55Zm11.092-2.734-4.7 6.99c-.452.671.428 1.425 1.1.945l5.048-3.593c.166-.118.369-.182.577-.183.209 0 .412.062.579.18l3.74 2.628c.265.187.569.32.892.391.323.072.658.08.984.023a2.49 2.49 0 0 0 .912-.35c.274-.175.507-.4.684-.664l4.704-6.986c.448-.671-.432-1.428-1.104-.948L23.46 18.84a1.003 1.003 0 0 1-.577.183c-.209 0-.412-.062-.579-.18l-3.74-2.628a2.477 2.477 0 0 0-.892-.391 2.556 2.556 0 0 0-.984-.023 2.489 2.489 0 0 0-.911.35c-.275.175-.508.4-.685.664Z" fill="#07FFE1"/></svg>