<svg width="40" height="41" fill="none" xmlns="http://www.w3.org/2000/svg"><path d="M39 20.5C39 31.293 30.47 40 20 40S1 31.293 1 20.5 9.53 1 20 1s19 8.707 19 19.5Z" stroke="#07FFE1" stroke-width="2"/><g clip-path="url('#clip0_44_214')"><path d="M20 4C11.164 4 4 11.387 4 20.5c0 7.738 5.166 14.23 12.135 16.014V25.542h-3.3V20.5h3.3v-2.173c0-5.616 2.465-8.219 7.811-8.219 1.014 0 2.763.206 3.479.41v4.57c-.378-.04-1.034-.06-1.849-.06-2.623 0-3.637 1.024-3.637 3.689V20.5h5.226l-.898 5.042H21.94V36.88c7.923-.986 14.062-7.943 14.062-16.379C36 11.387 28.837 4 20 4Z" fill="#07FFE1"/></g><defs><clipPath id="clip0_44_214"><path fill="#fff" transform="translate(4 4)" d="M0 0h32v33H0z"/></clipPath></defs></svg>