<svg width="40" height="41" fill="none" xmlns="http://www.w3.org/2000/svg"><path d="M39 20.5C39 31.293 30.47 40 20 40S1 31.293 1 20.5 9.53 1 20 1s19 8.707 19 19.5Z" stroke="#07FFE1" stroke-width="2"/><path d="M20.5 8.521c3.874 0 4.333.016 5.857.082 1.416.06 2.18.29 2.69.481a4.503 4.503 0 0 1 1.665 1.045c.51.492.822.957 1.082 1.608.198.492.436 1.236.499 2.597.068 1.477.084 1.92.084 5.655 0 3.74-.017 4.184-.084 5.655-.063 1.367-.3 2.105-.499 2.597a4.317 4.317 0 0 1-1.082 1.608 4.48 4.48 0 0 1-1.665 1.045c-.51.191-1.28.42-2.69.481-1.53.066-1.988.082-5.857.082-3.874 0-4.333-.016-5.857-.082-1.416-.06-2.18-.29-2.69-.481a4.504 4.504 0 0 1-1.665-1.045 4.294 4.294 0 0 1-1.082-1.608c-.198-.492-.436-1.235-.499-2.597-.068-1.477-.085-1.92-.085-5.655 0-3.74.017-4.184.085-5.655.063-1.367.3-2.105.499-2.597.26-.651.578-1.121 1.082-1.608a4.48 4.48 0 0 1 1.665-1.045c.51-.191 1.28-.42 2.69-.48 1.524-.066 1.983-.083 5.857-.083ZM20.5 6c-3.936 0-4.43.016-5.976.082-1.54.066-2.6.306-3.517.65-.957.362-1.767.838-2.571 1.62a6.841 6.841 0 0 0-1.677 2.477c-.357.891-.606 1.909-.674 3.396C6.017 15.723 6 16.199 6 20c0 3.8.017 4.277.085 5.77.068 1.487.317 2.51.674 3.396a6.814 6.814 0 0 0 1.677 2.482A7.118 7.118 0 0 0 11 33.262c.924.344 1.977.585 3.518.65 1.546.066 2.039.083 5.975.083 3.937 0 4.43-.017 5.976-.082 1.54-.066 2.6-.307 3.517-.651a7.118 7.118 0 0 0 2.566-1.614 6.823 6.823 0 0 0 1.671-2.477c.357-.891.606-1.909.674-3.396.068-1.493.085-1.969.085-5.77 0-3.8-.017-4.276-.085-5.77-.068-1.487-.317-2.51-.674-3.395a6.536 6.536 0 0 0-1.66-2.488A7.119 7.119 0 0 0 30 6.738c-.924-.344-1.977-.585-3.518-.65C24.93 6.016 24.436 6 20.5 6Z" fill="#07FFE1"/><path d="M20.5 12.809c-4.112 0-7.448 3.22-7.448 7.191 0 3.97 3.336 7.191 7.448 7.191s7.448-3.22 7.448-7.191c0-3.97-3.336-7.191-7.448-7.191Zm0 11.856c-2.668 0-4.831-2.09-4.831-4.665 0-2.576 2.163-4.665 4.831-4.665 2.668 0 4.831 2.09 4.831 4.665 0 2.576-2.163 4.665-4.831 4.665ZM29.982 12.524c0 .93-.782 1.68-1.74 1.68-.962 0-1.738-.756-1.738-1.68 0-.93.781-1.679 1.739-1.679.957 0 1.739.755 1.739 1.68Z" fill="#07FFE1"/></svg>