<svg width="78" height="81" fill="none" xmlns="http://www.w3.org/2000/svg"><path d="M77 40.5C77 62.351 59.952 80 39 80S1 62.351 1 40.5 18.048 1 39 1s38 17.649 38 39.5Z" fill="#030101" stroke="#07FFE1" stroke-width="2"/><g clip-path="url('#clip0_37_101')"><path d="M39 8C21.88 8 8 22.55 8 40.5c0 15.241 10.01 28.03 23.512 31.543V50.432h-6.393V40.5h6.393v-4.28c0-11.061 4.775-16.188 15.134-16.188 1.964 0 5.353.404 6.74.807v9.002c-.732-.08-2.003-.12-3.582-.12-5.083 0-7.047 2.018-7.047 7.266V40.5h10.126l-1.74 9.932h-8.386v22.33C58.107 70.82 70.001 57.117 70.001 40.5 70 22.55 56.121 8 39 8Z" fill="#07FFE1"/></g><defs><clipPath id="clip0_37_101"><path fill="#fff" transform="translate(8 8)" d="M0 0h62v65H0z"/></clipPath></defs></svg>