<svg width="78" height="80" fill="none" xmlns="http://www.w3.org/2000/svg"><path d="M77 40c0 21.563-17.037 39-38 39S1 61.563 1 40 18.037 1 39 1s38 17.437 38 39Z" fill="#120303" stroke="#07FFE1" stroke-width="2"/><g filter="url('#filter0_d_37_100')"><path d="M52.104 8H41.655v43.594c0 5.194-4.019 9.461-9.02 9.461-5 0-9.02-4.267-9.02-9.46 0-5.102 3.93-9.276 8.753-9.462V31.188c-10.628.186-19.201 9.183-19.201 20.406C13.167 62.91 21.919 72 32.725 72s19.557-9.183 19.557-20.406V29.24c3.93 2.969 8.753 4.731 13.843 4.824V23.119C58.266 22.84 52.104 16.162 52.104 8Z" fill="#07FFE1"/></g><defs><filter id="filter0_d_37_100" x="4" y="8" width="70" height="72" filterUnits="userSpaceOnUse" color-interpolation-filters="sRGB"><feFlood flood-opacity="0" result="BackgroundImageFix"/><feColorMatrix in="SourceAlpha" values="0 0 0 0 0 0 0 0 0 0 0 0 0 0 0 0 0 0 127 0" result="hardAlpha"/><feOffset dy="4"/><feGaussianBlur stdDeviation="2"/><feComposite in2="hardAlpha" operator="out"/><feColorMatrix values="0 0 0 0 0 0 0 0 0 0 0 0 0 0 0 0 0 0 0.25 0"/><feBlend in2="BackgroundImageFix" result="effect1_dropShadow_37_100"/><feBlend in="SourceGraphic" in2="effect1_dropShadow_37_100" result="shape"/></filter></defs></svg>