<svg width="76" height="78" fill="none" xmlns="http://www.w3.org/2000/svg"><path d="M75 39c0 21.011-16.59 38-37 38S1 60.011 1 39C1 17.988 17.59 1 38 1s37 16.988 37 38Z" fill="#000" stroke="#07FFE1" stroke-width="2"/><path d="M38.5 15.862c7.348 0 8.218.032 11.107.158 2.686.116 4.136.56 5.103.928 1.278.486 2.202 1.076 3.158 2.015.967.95 1.558 1.846 2.052 3.1.376.95.827 2.384.945 5.01.13 2.848.161 3.702.161 10.906 0 7.214-.032 8.068-.16 10.905-.119 2.637-.57 4.06-.946 5.01-.494 1.255-1.096 2.162-2.052 3.1-.967.95-1.88 1.53-3.158 2.015-.967.37-2.428.813-5.103.928-2.9.127-3.77.159-11.107.159-7.348 0-8.218-.032-11.107-.158-2.686-.117-4.136-.56-5.103-.929-1.278-.485-2.202-1.075-3.158-2.014-.967-.95-1.558-1.846-2.052-3.1-.376-.95-.827-2.384-.945-5.01-.13-2.848-.161-3.703-.161-10.906 0-7.214.032-8.069.16-10.906.119-2.636.57-4.06.946-5.01.494-1.254 1.096-2.161 2.052-3.1.967-.95 1.88-1.53 3.158-2.015.967-.369 2.428-.812 5.103-.928 2.89-.126 3.76-.158 11.107-.158Zm0-4.862c-7.466 0-8.4.032-11.333.158-2.922.127-4.93.59-6.67 1.255-1.816.696-3.352 1.614-4.878 3.122-1.536 1.498-2.47 3.006-3.18 4.778-.676 1.719-1.149 3.68-1.278 6.55C11.032 29.753 11 30.67 11 38s.032 8.248.161 11.127c.129 2.869.602 4.841 1.279 6.55.708 1.782 1.643 3.29 3.18 4.788 1.525 1.497 3.06 2.426 4.865 3.111 1.751.665 3.75 1.129 6.671 1.255 2.933.127 3.867.159 11.333.159s8.4-.032 11.333-.159c2.922-.126 4.93-.59 6.671-1.255 1.805-.685 3.341-1.614 4.866-3.111 1.526-1.498 2.471-3.006 3.17-4.778.676-1.719 1.149-3.68 1.278-6.55.129-2.879.16-3.796.16-11.127 0-7.33-.031-8.247-.16-11.126-.13-2.87-.602-4.841-1.279-6.55-.676-1.793-1.611-3.301-3.147-4.799-1.526-1.498-3.062-2.426-4.866-3.111-1.751-.665-3.75-1.129-6.671-1.255C46.9 11.032 45.966 11 38.5 11Z" fill="#07FFE1"/><path d="M38.5 24.13c-7.799 0-14.126 6.213-14.126 13.87 0 7.657 6.327 13.87 14.126 13.87 7.799 0 14.126-6.213 14.126-13.87 0-7.657-6.327-13.87-14.126-13.87Zm0 22.866c-5.06 0-9.163-4.028-9.163-8.996 0-4.968 4.103-8.997 9.163-8.997 5.06 0 9.163 4.03 9.163 8.997 0 4.968-4.103 8.996-9.163 8.996ZM56.482 23.582c0 1.793-1.482 3.238-3.297 3.238-1.827 0-3.298-1.455-3.298-3.238 0-1.793 1.482-3.238 3.298-3.238 1.815 0 3.297 1.456 3.297 3.238Z" fill="#07FFE1"/></svg>